<svg xmlns="http://www.w3.org/2000/svg" viewBox="0 0 640 360" width="640" height="360" font-family="'Spline Sans Mono', ui-monospace, SF Mono, Menlo, Consolas, monospace">
<rect width="640" height="360" fill="#FFFFFF"/>
<text x="64" y="24" font-size="16" font-weight="600" fill="#16181D">Snap</text>
<line x1="64" y1="320.0" x2="624" y2="320.0" stroke="#EDF0F3"/>
<text x="56" y="320.0" dy="0.35em" font-size="12" fill="#7A8294" text-anchor="end">0</text>
<line x1="64" y1="245.9" x2="624" y2="245.9" stroke="#EDF0F3"/>
<text x="56" y="245.9" dy="0.35em" font-size="12" fill="#7A8294" text-anchor="end">50</text>
<line x1="64" y1="171.9" x2="624" y2="171.9" stroke="#EDF0F3"/>
<text x="56" y="171.9" dy="0.35em" font-size="12" fill="#7A8294" text-anchor="end">100</text>
<line x1="64" y1="97.8" x2="624" y2="97.8" stroke="#EDF0F3"/>
<text x="56" y="97.8" dy="0.35em" font-size="12" fill="#7A8294" text-anchor="end">150</text>
<line x1="64.0" y1="40" x2="64.0" y2="320" stroke="#EDF0F3"/>
<text x="64.0" y="336.0" font-size="12" fill="#7A8294" text-anchor="middle">0</text>
<line x1="250.7" y1="40" x2="250.7" y2="320" stroke="#EDF0F3"/>
<text x="250.7" y="336.0" font-size="12" fill="#7A8294" text-anchor="middle">1</text>
<line x1="437.3" y1="40" x2="437.3" y2="320" stroke="#EDF0F3"/>
<text x="437.3" y="336.0" font-size="12" fill="#7A8294" text-anchor="middle">2</text>
<line x1="624.0" y1="40" x2="624.0" y2="320" stroke="#EDF0F3"/>
<text x="624.0" y="336.0" font-size="12" fill="#7A8294" text-anchor="middle">3</text>
<text x="344.0" y="352.0" font-size="12" fill="#7A8294" text-anchor="middle">Years</text>
<line x1="64" y1="320" x2="624" y2="320" stroke="#D2402F" stroke-width="1.8"/>
<text x="69" y="316" font-size="11" font-weight="600" fill="#D2402F">ruin · 0</text>
<line x1="64" y1="40" x2="64" y2="320" stroke="#CDD2DA"/>
<metadata class="hover">{"kind":"fan","x0":64,"x1":624,"y0":40,"y1":320,"xmax":3,"xlabel":"Years","series":[{"name":"p95","color":"#0B7285","ys":[100,130,150,180]},{"name":"median","color":"#16181D","ys":[100,105,108,112]},{"name":"p5","color":"#0B7285","ys":[100,90,80,70]}]}</metadata>
<polygon points="64.0,171.9 250.7,186.7 437.3,201.5 624.0,216.3 624.0,53.3 437.3,97.8 250.7,127.4 64.0,171.9" fill="#0B7285" fill-opacity="0.10" stroke="none"/>
<path d="M64.0 171.9L250.7 179.3L437.3 260.7L624.0 320.0" fill="none" stroke="#D2402F" stroke-width="1.8" stroke-opacity="0.9" stroke-linejoin="round" stroke-linecap="round"/>
<path d="M64.0 171.9L250.7 142.2L437.3 112.6L624.0 40.0" fill="none" stroke="#A8AEBC" stroke-width="1" stroke-opacity="0.55" stroke-linejoin="round" stroke-linecap="round"/>
<path d="M64.0 171.9L250.7 164.4L437.3 160.0L624.0 154.1" fill="none" stroke="#16181D" stroke-width="2.2" stroke-linejoin="round" stroke-linecap="round"/>
<circle cx="624.0" cy="154.1" r="3" fill="#16181D"/>
<text x="617.0" y="147.1" font-size="11" fill="#4A5160" text-anchor="end">median</text>
<text x="624" y="52.0" font-size="11" fill="#7A8294" text-anchor="end">upside clipped ↑</text>
</svg>