<svg xmlns="http://www.w3.org/2000/svg" viewBox="0 0 640 360" width="640" height="360" font-family="'Spline Sans Mono', ui-monospace, SF Mono, Menlo, Consolas, monospace">
<rect width="640" height="360" fill="#FFFFFF"/>
<text x="64" y="24" font-size="16" font-weight="600" fill="#16181D">Snap</text>
<line x1="64" y1="320.0" x2="624" y2="320.0" stroke="#EDF0F3"/>
<text x="56" y="320.0" dy="0.35em" font-size="12" fill="#7A8294" text-anchor="end">0</text>
<line x1="64" y1="272.4" x2="624" y2="272.4" stroke="#EDF0F3"/>
<text x="56" y="272.4" dy="0.35em" font-size="12" fill="#7A8294" text-anchor="end">20</text>
<line x1="64" y1="224.8" x2="624" y2="224.8" stroke="#EDF0F3"/>
<text x="56" y="224.8" dy="0.35em" font-size="12" fill="#7A8294" text-anchor="end">40</text>
<line x1="64" y1="177.1" x2="624" y2="177.1" stroke="#EDF0F3"/>
<text x="56" y="177.1" dy="0.35em" font-size="12" fill="#7A8294" text-anchor="end">60</text>
<line x1="64" y1="129.5" x2="624" y2="129.5" stroke="#EDF0F3"/>
<text x="56" y="129.5" dy="0.35em" font-size="12" fill="#7A8294" text-anchor="end">80</text>
<line x1="64" y1="81.9" x2="624" y2="81.9" stroke="#EDF0F3"/>
<text x="56" y="81.9" dy="0.35em" font-size="12" fill="#7A8294" text-anchor="end">100</text>
<line x1="64.0" y1="40" x2="64.0" y2="320" stroke="#EDF0F3"/>
<text x="64.0" y="336.0" font-size="12" fill="#7A8294" text-anchor="middle">0</text>
<line x1="250.7" y1="40" x2="250.7" y2="320" stroke="#EDF0F3"/>
<text x="250.7" y="336.0" font-size="12" fill="#7A8294" text-anchor="middle">1</text>
<line x1="437.3" y1="40" x2="437.3" y2="320" stroke="#EDF0F3"/>
<text x="437.3" y="336.0" font-size="12" fill="#7A8294" text-anchor="middle">2</text>
<line x1="624.0" y1="40" x2="624.0" y2="320" stroke="#EDF0F3"/>
<text x="624.0" y="336.0" font-size="12" fill="#7A8294" text-anchor="middle">3</text>
<text x="344.0" y="352.0" font-size="12" fill="#7A8294" text-anchor="middle">Years</text>
<line x1="64" y1="320" x2="624" y2="320" stroke="#D2402F" stroke-width="1.8"/>
<text x="69" y="316" font-size="11" font-weight="600" fill="#D2402F">ruin · 0</text>
<line x1="64" y1="40" x2="64" y2="320" stroke="#CDD2DA"/>
<polygon points="64.0,81.9 250.7,105.7 437.3,129.5 624.0,153.3 624.0,-108.6 437.3,-37.1 250.7,10.5 64.0,81.9" fill="#0B7285" fill-opacity="0.10" stroke="none"/>
<path d="M64.0 81.9L250.7 93.8L437.3 224.8L624.0 320.0" fill="none" stroke="#D2402F" stroke-width="1.8" stroke-opacity="0.9" stroke-linejoin="round" stroke-linecap="round"/>
<path d="M64.0 81.9L250.7 40.0L437.3 40.0L624.0 40.0" fill="none" stroke="#A8AEBC" stroke-width="1" stroke-opacity="0.55" stroke-linejoin="round" stroke-linecap="round"/>
<path d="M64.0 81.9L250.7 70.0L437.3 62.9L624.0 53.3" fill="none" stroke="#16181D" stroke-width="2.2" stroke-linejoin="round" stroke-linecap="round"/>
<circle cx="624.0" cy="53.3" r="3" fill="#16181D"/>
</svg>